<svg xmlns="http://www.w3.org/2000/svg" width="310.948" height="190.192" viewBox="0 0 310.948 190.192">
  <g id="Group_114" data-name="Group 114" transform="translate(-264.919 -200.883)">
    <g id="Group_110" data-name="Group 110">
      <g id="Group_102" data-name="Group 102">
        <circle id="Ellipse_79" data-name="Ellipse 79" cx="5.294" cy="5.294" r="5.294" transform="translate(440.326 211.025)" fill="#2eaa79"/>
      </g>
      <g id="Group_103" data-name="Group 103">
        <path id="Path_4357" data-name="Path 4357" d="M427.8,234.136c-7.128-7.128-.459-23.506,5.608-31.828a3.49,3.49,0,0,1,5.286-.4h0a3.464,3.464,0,0,1,.362,4.515c-5.215,6.949-9.442,19.579-6.283,22.738s15.789-1.069,22.737-6.284a3.465,3.465,0,0,1,4.515.362h0a3.489,3.489,0,0,1-.4,5.286C451.309,234.594,434.931,241.263,427.8,234.136Z" fill="#eb423a"/>
      </g>
      <g id="Group_104" data-name="Group 104">
        <circle id="Ellipse_80" data-name="Ellipse 80" cx="5.294" cy="5.294" r="5.294" transform="translate(390.975 211.025)" fill="#ee90b6"/>
      </g>
      <g id="Group_105" data-name="Group 105">
        <path id="Path_4358" data-name="Path 4358" d="M414.086,234.135c-7.127,7.127-23.505.459-31.827-5.609a3.489,3.489,0,0,1-.4-5.286h0a3.464,3.464,0,0,1,4.515-.361c6.948,5.214,19.579,9.442,22.737,6.283s-1.069-15.789-6.284-22.737a3.465,3.465,0,0,1,.362-4.515h0a3.489,3.489,0,0,1,5.286.4C414.545,210.63,421.213,227.008,414.086,234.135Z" fill="#2eaa79"/>
      </g>
      <g id="Group_106" data-name="Group 106">
        <circle id="Ellipse_81" data-name="Ellipse 81" cx="5.294" cy="5.294" r="5.294" transform="translate(390.975 260.376)" fill="#eb423a"/>
      </g>
      <g id="Group_107" data-name="Group 107">
        <path id="Path_4359" data-name="Path 4359" d="M414.086,247.853c7.127,7.127.458,23.505-5.609,31.827a3.489,3.489,0,0,1-5.286.4h0a3.465,3.465,0,0,1-.362-4.515c5.215-6.948,9.442-19.579,6.284-22.737s-15.789,1.069-22.738,6.283a3.465,3.465,0,0,1-4.515-.361h0a3.489,3.489,0,0,1,.4-5.285C390.58,247.394,406.958,240.725,414.086,247.853Z" fill="#fe9a16"/>
      </g>
      <g id="Group_108" data-name="Group 108">
        <circle id="Ellipse_82" data-name="Ellipse 82" cx="5.294" cy="5.294" r="5.294" transform="translate(440.326 260.376)" fill="#fe9a16"/>
      </g>
      <g id="Group_109" data-name="Group 109">
        <path id="Path_4360" data-name="Path 4360" d="M427.8,247.853c7.128-7.127,23.506-.459,31.828,5.609a3.489,3.489,0,0,1,.4,5.286h0a3.464,3.464,0,0,1-4.514.362c-6.949-5.215-19.579-9.442-22.738-6.284s1.069,15.789,6.284,22.738a3.464,3.464,0,0,1-.362,4.514h0a3.489,3.489,0,0,1-5.286-.4C427.344,271.359,420.676,254.981,427.8,247.853Z" fill="#ee90b6"/>
      </g>
    </g>
    <g id="Group_113" data-name="Group 113">
      <g id="Group_111" data-name="Group 111">
        <path id="Path_4361" data-name="Path 4361" d="M268.75,353.987a3.774,3.774,0,0,1-3.831-3.831V300.281a3.667,3.667,0,0,1,1.1-2.762,3.815,3.815,0,0,1,6.557,2.762v21.144h34.183V300.281a3.667,3.667,0,0,1,1.1-2.762,3.771,3.771,0,0,1,2.725-1.069,3.621,3.621,0,0,1,2.727,1.069,3.814,3.814,0,0,1,1.031,2.762v49.875a3.849,3.849,0,0,1-1.031,2.726,3.556,3.556,0,0,1-2.727,1.105,3.774,3.774,0,0,1-3.83-3.831V328.2H272.581v21.954a3.774,3.774,0,0,1-1.069,2.726A3.671,3.671,0,0,1,268.75,353.987Z" fill="#112783"/>
        <path id="Path_4362" data-name="Path 4362" d="M346.1,354.282a20.828,20.828,0,0,1-10.535-2.615,18.95,18.95,0,0,1-7.184-7.22,22.827,22.827,0,0,1,0-21.218,18.961,18.961,0,0,1,7.184-7.219,22.379,22.379,0,0,1,21,0,18.959,18.959,0,0,1,7.183,7.219,22.972,22.972,0,0,1,.037,21.218,18.7,18.7,0,0,1-7.147,7.22A20.829,20.829,0,0,1,346.1,354.282Zm0-6.631a12.911,12.911,0,0,0,6.777-1.767,12.371,12.371,0,0,0,4.6-4.863,14.9,14.9,0,0,0,1.657-7.146,15.127,15.127,0,0,0-1.657-7.183,12.309,12.309,0,0,0-4.6-4.9,13.868,13.868,0,0,0-13.555,0,12.567,12.567,0,0,0-4.642,4.9,14.854,14.854,0,0,0-1.694,7.183,14.633,14.633,0,0,0,1.694,7.146,12.633,12.633,0,0,0,4.642,4.863A12.91,12.91,0,0,0,346.1,347.651Z" fill="#112783"/>
        <path id="Path_4363" data-name="Path 4363" d="M387.338,353.987a9.722,9.722,0,0,1-5.748-1.768,11.737,11.737,0,0,1-3.9-4.825,16.736,16.736,0,0,1-1.4-7.036V300.134a3.685,3.685,0,1,1,7.367,0v40.224a8.815,8.815,0,0,0,1.031,4.494,3.035,3.035,0,0,0,2.653,1.768h1.841a3.061,3.061,0,0,1,2.394,1.031,3.837,3.837,0,0,1,.921,2.653,3.159,3.159,0,0,1-1.4,2.652,5.92,5.92,0,0,1-3.609,1.031Z" fill="#112783"/>
        <path id="Path_4364" data-name="Path 4364" d="M417.018,354.282a20.128,20.128,0,0,1-10.351-2.689,19.885,19.885,0,0,1-7.293-7.33,20.47,20.47,0,0,1-2.69-10.461,21.711,21.711,0,0,1,2.468-10.425,19.128,19.128,0,0,1,6.741-7.294,17.745,17.745,0,0,1,9.652-2.688,18.116,18.116,0,0,1,14.218,6.7V300.207a3.62,3.62,0,0,1,1.068-2.726,3.741,3.741,0,0,1,6.446,2.726v33.6a20.488,20.488,0,0,1-2.688,10.461,19.824,19.824,0,0,1-17.571,10.019Zm0-6.631a12.571,12.571,0,0,0,6.7-1.8,12.769,12.769,0,0,0,4.641-4.973,14.746,14.746,0,0,0,1.694-7.072,14.479,14.479,0,0,0-1.694-7.073,12.914,12.914,0,0,0-4.641-4.9,13.279,13.279,0,0,0-13.372,0,13.1,13.1,0,0,0-4.715,4.9A14.238,14.238,0,0,0,403.9,333.8a14.5,14.5,0,0,0,1.731,7.072,12.942,12.942,0,0,0,4.715,4.973A12.621,12.621,0,0,0,417.018,347.651Z" fill="#112783"/>
        <path id="Path_4365" data-name="Path 4365" d="M477.273,354.724a31.387,31.387,0,0,1-11.861-2.173,26.887,26.887,0,0,1-9.246-6.115,27.7,27.7,0,0,1-6-9.356,34.09,34.09,0,0,1,0-23.76,27.807,27.807,0,0,1,6-9.319,26.913,26.913,0,0,1,9.246-6.114,33.342,33.342,0,0,1,23.685,0,27.162,27.162,0,0,1,15.286,15.433,34.09,34.09,0,0,1,0,23.76A27.088,27.088,0,0,1,489.1,352.551,31.117,31.117,0,0,1,477.273,354.724Zm0-6.925a21.98,21.98,0,0,0,8.8-1.732A21.024,21.024,0,0,0,497.569,334.1a25.874,25.874,0,0,0,0-17.828,21.171,21.171,0,0,0-4.53-7.183,20.8,20.8,0,0,0-6.962-4.752,23.725,23.725,0,0,0-17.608,0,20.378,20.378,0,0,0-6.925,4.752,21.885,21.885,0,0,0-4.531,7.183,25.32,25.32,0,0,0,0,17.828,21.864,21.864,0,0,0,4.531,7.183,20.8,20.8,0,0,0,6.925,4.788A21.966,21.966,0,0,0,477.273,347.8Z" fill="#2eaa79"/>
        <path id="Path_4366" data-name="Path 4366" d="M521.3,354.061a3.65,3.65,0,0,1-3.756-3.757V317.446a3.615,3.615,0,0,1,1.067-2.725,3.741,3.741,0,0,1,6.446,2.725V350.3a3.713,3.713,0,0,1-1.031,2.689A3.618,3.618,0,0,1,521.3,354.061Zm30.28,0a3.652,3.652,0,0,1-3.758-3.757V332.181a13.484,13.484,0,0,0-1.547-6.852,9.751,9.751,0,0,0-4.162-3.941,13.422,13.422,0,0,0-6.005-1.289,12.356,12.356,0,0,0-5.6,1.252,10.479,10.479,0,0,0-3.978,3.352,8.2,8.2,0,0,0-1.474,4.825h-4.64a15.473,15.473,0,0,1,2.247-8.288,16.218,16.218,0,0,1,6.151-5.783,17.965,17.965,0,0,1,8.767-2.137,18.815,18.815,0,0,1,9.1,2.174,15.69,15.69,0,0,1,6.336,6.372,21.074,21.074,0,0,1,2.321,10.315V350.3a3.653,3.653,0,0,1-3.757,3.757Z" fill="#2eaa79"/>
        <path id="Path_4367" data-name="Path 4367" d="M570.783,353.987a4.941,4.941,0,0,1-3.573-1.473,4.846,4.846,0,0,1-1.51-3.61,4.971,4.971,0,0,1,1.51-3.647,5.026,5.026,0,0,1,7.183,0,5.037,5.037,0,0,1,1.474,3.647,4.851,4.851,0,0,1-1.511,3.61A4.942,4.942,0,0,1,570.783,353.987Zm0-13.629a3.518,3.518,0,0,1-2.689-1.142,3.713,3.713,0,0,1-1.068-2.615v-36.32a3.768,3.768,0,0,1,1.068-2.726,3.824,3.824,0,0,1,5.378,0,3.778,3.778,0,0,1,1.069,2.726V336.6a3.557,3.557,0,0,1-1.143,2.652A3.66,3.66,0,0,1,570.783,340.358Z" fill="#112783"/>
      </g>
      <g id="Group_112" data-name="Group 112">
        <path id="Path_4368" data-name="Path 4368" d="M277.358,387.1l-6.183-9.305c-1.254.336-1.867,1.377-1.867,2.938l.046,6.367H266.6v-5.418c0-2.572.627-4.836,3.52-5.494l-3.55-5.327h2.847l5.34,8.189c1.608-.245,2.618-1.041,2.618-2.832v-5.357h2.709v4.668c0,3.168-1.546,4.836-4.148,5.143l4.453,6.428Z" fill="#112783"/>
        <path id="Path_4369" data-name="Path 4369" d="M287.007,370.842v8.418h-2.876v-8.418Z" fill="#112783"/>
        <path id="Path_4370" data-name="Path 4370" d="M295.758,370.857c4.454,0,5.449,3.016,5.449,7.148V387.1H298.36v-9.275c0-2.418-.475-4.7-2.755-4.7h-4.9v-2.266Z" fill="#112783"/>
        <path id="Path_4371" data-name="Path 4371" d="M317.638,384.877V387.1H304.506v-2.219H312.7V373.123h-8.189v-2.266h11v14.02Z" fill="#112783"/>
        <path id="Path_4372" data-name="Path 4372" d="M341.3,387.1H328.385V370.857h7.423c4.179,0,5.494,2.067,5.494,6.153Zm-2.616-9.949c0-2.234-.215-4.024-3.123-4.024h-4.5v11.738h7.622Z" fill="#112783"/>
        <path id="Path_4373" data-name="Path 4373" d="M348.5,370.842v8.418h-2.877v-8.418Z" fill="#112783"/>
        <path id="Path_4374" data-name="Path 4374" d="M356.122,370.842v8.418h-2.877v-8.418Z" fill="#112783"/>
        <path id="Path_4375" data-name="Path 4375" d="M368.041,370.857c4.423,0,5.264,2.74,5.264,6.872V387.1h-2.816v-9.688c0-2.372-.352-4.285-2.6-4.285h-4.514V387.1H360.6V370.857Z" fill="#112783"/>
        <path id="Path_4376" data-name="Path 4376" d="M392.823,370.857c4.423,0,5.265,2.74,5.265,6.872V387.1h-2.817v-9.688c0-2.372-.351-4.285-2.6-4.285h-4.515V387.1h-2.771V370.857Z" fill="#112783"/>
        <path id="Path_4377" data-name="Path 4377" d="M406.422,370.857c4.453,0,5.448,3.016,5.448,7.148V387.1h-2.847v-9.275c0-2.418-.475-4.7-2.755-4.7h-4.9v-2.266Z" fill="#112783"/>
        <path id="Path_4378" data-name="Path 4378" d="M418.979,370.857V387.1H416.1V370.857Z" fill="#112783"/>
        <path id="Path_4379" data-name="Path 4379" d="M433.76,387.1l-6.182-9.305c-1.255.336-1.867,1.377-1.867,2.938l.045,6.367H423v-5.418c0-2.572.627-4.836,3.519-5.494l-3.55-5.327h2.847l5.341,8.189c1.607-.245,2.617-1.041,2.617-2.832v-5.357h2.709v4.668c0,3.168-1.546,4.836-4.147,5.143l4.453,6.428Z" fill="#112783"/>
        <path id="Path_4380" data-name="Path 4380" d="M451.276,370.857,445.323,387.1h-2.755l5.021-13.973h-8.311v-5.587h2.448v3.321Z" fill="#112783"/>
        <path id="Path_4381" data-name="Path 4381" d="M470.351,391.075h-2.846V373.123h-6.78v-2.266h9.626Z" fill="#112783"/>
        <path id="Path_4382" data-name="Path 4382" d="M485.6,370.857,479.65,387.1h-2.755l5.021-13.973h-8.311v-5.587h2.448v3.321Z" fill="#112783"/>
        <path id="Path_4383" data-name="Path 4383" d="M501.652,370.857h2.663v7.867c0,5.617-2.755,8.372-7.866,8.372h-7.026l-1.5-16.239H490.6l1.317,14h4.209c3.321,0,5.524-1.332,5.524-5.509Zm-4.116,0v10.224h-2.572V370.857Z" fill="#112783"/>
        <path id="Path_4384" data-name="Path 4384" d="M521,370.857c4.453,0,5.448,3.016,5.448,7.148V387.1H523.6v-9.275c0-2.418-.474-4.7-2.755-4.7h-4.9v-2.266Z" fill="#112783"/>
        <path id="Path_4385" data-name="Path 4385" d="M542.88,384.877V387.1H529.748v-2.219h8.188V373.123h-8.188v-2.266h11v14.02Z" fill="#112783"/>
        <path id="Path_4386" data-name="Path 4386" d="M553.325,370.857c4.423,0,5.264,2.74,5.264,6.872V387.1h-2.816v-9.688c0-2.372-.351-4.285-2.6-4.285h-4.515V387.1h-2.771V370.857Z" fill="#112783"/>
        <path id="Path_4387" data-name="Path 4387" d="M574.82,370.857V387.1h-2.755V373.123h-9.719v-2.266Zm-12.352,7.331h2.755V387.1h-2.755Z" fill="#112783"/>
      </g>
    </g>
  </g>
</svg>
